<?xml version="1.0" encoding="UTF-8"?>
<svg xmlns="http://www.w3.org/2000/svg" xmlns:xlink="http://www.w3.org/1999/xlink" width="3300pt" height="710pt" viewBox="0 0 3300 710" version="1.1">
<g id="surface1">
<path style=" stroke:none;fill-rule:nonzero;fill:rgb(76.862745%,70.980392%,18.431373%);fill-opacity:1;" d="M 737.210938 656.492188 C 714.472656 646.71875 713.414062 643.117188 722.933594 614.304688 C 730.335938 590.636719 732.453125 588.578125 745.144531 590.636719 C 753.078125 591.667969 762.066406 589.609375 765.242188 585.492188 C 768.414062 581.890625 780.578125 524.269531 792.742188 457.898438 C 804.902344 391.527344 817.066406 324.644531 820.242188 310.238281 L 825.527344 282.972656 L 867.835938 282.972656 C 897.453125 282.972656 909.617188 285.027344 909.617188 289.660156 C 909.617188 292.746094 897.453125 363.230469 882.644531 445.035156 C 854.085938 604.527344 845.625 631.28125 818.125 647.746094 C 794.855469 661.636719 757.835938 665.753906 737.210938 656.492188 Z M 737.210938 656.492188 "/>
<path style=" stroke:none;fill-rule:nonzero;fill:rgb(76.862745%,70.980392%,18.431373%);fill-opacity:1;" d="M 571.152344 545.363281 C 565.335938 539.703125 560.578125 531.984375 560.578125 528.898438 C 560.046875 510.375 514.566406 478.476562 489.183594 478.476562 C 479.132812 478.476562 470.671875 475.90625 470.671875 472.820312 C 470.671875 469.730469 464.328125 459.441406 456.921875 449.667969 C 448.460938 438.863281 444.230469 429.085938 446.347656 423.941406 C 448.460938 418.28125 445.289062 410.566406 438.414062 403.363281 L 426.777344 391.527344 L 444.230469 370.949219 C 460.625 350.371094 472.257812 344.710938 478.605469 355 C 480.191406 358.085938 488.652344 360.144531 496.585938 360.144531 C 507.164062 360.144531 519.328125 352.425781 541.007812 331.847656 C 557.402344 316.414062 571.152344 300.464844 571.152344 295.832031 C 571.152344 291.71875 574.328125 288.117188 578.558594 288.117188 C 582.257812 288.117188 592.308594 286.574219 600.769531 285.027344 C 613.992188 282.457031 617.164062 284.515625 623.507812 298.921875 C 627.742188 307.667969 635.144531 316.414062 640.433594 317.441406 C 646.777344 319.5 651.007812 325.160156 651.539062 333.90625 C 651.539062 341.109375 652.597656 349.855469 653.125 352.425781 C 654.183594 355.515625 654.710938 360.144531 655.242188 363.746094 C 655.769531 367.347656 664.230469 369.40625 677.980469 368.890625 C 691.730469 368.375 700.722656 370.433594 702.308594 374.550781 C 703.367188 378.152344 710.242188 387.925781 717.117188 395.644531 C 723.992188 403.875 729.808594 413.136719 729.808594 416.738281 C 729.808594 424.972656 708.125 441.949219 697.546875 442.464844 C 692.789062 442.464844 684.855469 447.09375 680.097656 452.238281 C 671.632812 461.5 671.632812 462.527344 682.210938 469.730469 C 692.789062 476.933594 692.789062 478.992188 687.5 497.515625 C 681.683594 516.035156 679.566406 517.578125 663.171875 517.578125 C 646.25 517.578125 645.191406 516.550781 647.835938 503.6875 C 650.480469 491.855469 648.894531 489.796875 634.085938 486.710938 C 610.289062 482.078125 609.230469 482.59375 602.882812 494.425781 C 598.652344 501.628906 598.652344 506.773438 602.355469 511.40625 C 611.347656 521.695312 598.652344 555.652344 586.492188 555.652344 C 583.847656 555.652344 576.972656 551.023438 571.152344 545.363281 Z M 571.152344 545.363281 "/>
<path style=" stroke:none;fill-rule:nonzero;fill:rgb(76.862745%,70.980392%,18.431373%);fill-opacity:1;" d="M 958.269531 516.035156 C 931.296875 503.175781 923.367188 483.625 927.066406 437.320312 C 936.585938 325.160156 973.078125 277.3125 1049.230469 276.796875 C 1069.855469 276.796875 1089.953125 279.882812 1099.472656 284.515625 C 1108.460938 289.144531 1115.867188 290.175781 1115.867188 287.601562 C 1115.867188 285.027344 1133.847656 282.972656 1155.527344 282.972656 C 1177.210938 282.972656 1195.191406 284 1195.191406 284.515625 C 1195.191406 285.542969 1189.375 318.472656 1181.441406 357.574219 C 1165.046875 444.007812 1165.578125 455.839844 1186.203125 454.296875 C 1199.953125 453.269531 1200.480469 453.78125 1200.480469 481.566406 C 1200.480469 508.832031 1199.953125 509.863281 1181.972656 517.578125 C 1144.953125 532.5 1094.183594 522.726562 1086.777344 498.542969 C 1083.078125 487.738281 1083.078125 487.738281 1069.328125 500.601562 C 1061.394531 507.289062 1049.757812 516.035156 1043.414062 519.125 C 1026.492188 527.355469 978.367188 525.8125 958.269531 516.035156 Z M 1073.027344 446.066406 C 1076.203125 441.949219 1082.019531 420.855469 1086.777344 398.21875 C 1093.652344 363.746094 1093.652344 357.058594 1087.308594 350.882812 C 1077.257812 341.109375 1046.585938 346.769531 1034.421875 359.628906 C 1021.203125 374.035156 1011.152344 434.230469 1020.144531 444.523438 C 1028.605469 454.8125 1064.566406 455.324219 1073.027344 446.066406 Z M 1073.027344 446.066406 "/>
<path style=" stroke:none;fill-rule:nonzero;fill:rgb(76.862745%,70.980392%,18.431373%);fill-opacity:1;" d="M 1272.402344 517.578125 C 1243.847656 507.289062 1231.683594 493.914062 1228.507812 468.703125 L 1225.335938 447.609375 L 1269.757812 447.609375 C 1300.433594 448.125 1317.355469 450.179688 1324.230469 455.324219 C 1337.980469 465.617188 1367.066406 465.101562 1377.644531 454.8125 C 1390.867188 441.949219 1381.347656 436.804688 1329.519531 429.601562 C 1276.632812 421.882812 1259.183594 411.59375 1249.132812 383.296875 C 1235.914062 344.710938 1256.539062 307.152344 1302.019531 288.117188 C 1339.566406 271.652344 1419.421875 270.109375 1452.742188 285.027344 C 1487.117188 299.949219 1499.277344 334.421875 1479.710938 359.117188 C 1476.007812 362.71875 1460.144531 365.289062 1435.289062 365.289062 C 1399.328125 365.289062 1396.683594 364.261719 1395.097656 353.972656 C 1393.507812 343.679688 1390.335938 342.136719 1367.597656 342.136719 C 1348.558594 342.136719 1340.097656 344.710938 1335.867188 351.398438 C 1327.933594 364.261719 1342.210938 374.035156 1374.472656 378.667969 C 1442.164062 387.414062 1470.191406 405.933594 1470.191406 440.921875 C 1470.191406 470.761719 1454.328125 494.425781 1424.710938 509.347656 C 1403.027344 520.152344 1390.867188 522.210938 1345.914062 523.753906 C 1309.953125 524.269531 1286.152344 522.210938 1272.402344 517.578125 Z M 1272.402344 517.578125 "/>
<path style=" stroke:none;fill-rule:nonzero;fill:rgb(76.862745%,70.980392%,18.431373%);fill-opacity:1;" d="M 1561.683594 515.007812 C 1535.769531 503.175781 1523.078125 486.195312 1519.902344 459.441406 C 1517.257812 438.863281 1551.105469 242.839844 1558.507812 236.667969 C 1563.269531 232.550781 1639.953125 200.652344 1645.242188 200.652344 C 1647.355469 200.652344 1646.828125 211.457031 1644.183594 224.832031 C 1641.539062 238.726562 1638.367188 257.246094 1636.777344 266.507812 L 1633.605469 282.972656 L 1773.222656 282.972656 L 1769.519531 308.695312 C 1763.703125 351.914062 1767.933594 349.339844 1690.722656 350.882812 L 1620.914062 352.425781 L 1614.566406 385.871094 C 1604.519531 436.289062 1610.867188 452.753906 1639.953125 452.753906 C 1655.289062 452.753906 1667.453125 441.949219 1675.914062 420.339844 C 1681.203125 406.964844 1682.257812 406.449219 1724.039062 406.449219 L 1766.347656 406.449219 L 1763.171875 420.855469 C 1752.066406 463.042969 1729.328125 493.398438 1695.480469 510.375 C 1663.75 526.324219 1592.355469 528.898438 1561.683594 515.007812 Z M 1561.683594 515.007812 "/>
<path style=" stroke:none;fill-rule:nonzero;fill:rgb(76.862745%,70.980392%,18.431373%);fill-opacity:1;" d="M 1973.125 511.40625 C 1951.972656 494.425781 1948.796875 474.363281 1958.847656 422.398438 C 1969.421875 368.890625 1969.421875 362.71875 1958.316406 352.425781 C 1948.269531 342.136719 1922.355469 345.226562 1909.132812 358.085938 C 1904.375 362.71875 1895.914062 396.160156 1887.980469 441.433594 L 1874.230469 517.066406 L 1830.867188 518.609375 C 1798.078125 519.636719 1787.5 518.609375 1787.5 513.464844 C 1788.027344 509.863281 1802.835938 426 1820.816406 326.703125 L 1853.605469 146.628906 L 1897.5 145.085938 C 1921.296875 144.058594 1940.867188 145.601562 1940.867188 147.660156 C 1940.867188 149.71875 1935.046875 183.160156 1927.644531 221.230469 C 1920.242188 259.304688 1914.421875 292.230469 1914.421875 294.289062 C 1914.421875 296.347656 1922.355469 293.773438 1931.875 288.628906 C 1983.171875 259.820312 2050.867188 277.3125 2059.328125 321.042969 C 2060.914062 329.789062 2057.742188 361.6875 2052.453125 391.015625 C 2041.347656 450.179688 2043.460938 460.984375 2066.203125 455.324219 C 2077.835938 452.753906 2078.367188 453.78125 2078.367188 480.535156 C 2078.367188 506.773438 2077.308594 508.320312 2060.382812 516.550781 C 2031.828125 529.414062 1992.691406 527.355469 1973.125 511.40625 Z M 1973.125 511.40625 "/>
<path style=" stroke:none;fill-rule:nonzero;fill:rgb(76.862745%,70.980392%,18.431373%);fill-opacity:1;" d="M 2137.597656 514.492188 C 2109.566406 497.515625 2102.164062 473.847656 2109.566406 424.457031 C 2122.789062 336.992188 2145.527344 296.347656 2188.367188 282.457031 C 2214.808594 274.226562 2267.164062 275.253906 2281.972656 285.027344 C 2289.902344 290.175781 2295.722656 291.203125 2297.835938 288.117188 C 2299.421875 285.027344 2317.402344 282.972656 2338.027344 282.972656 C 2367.644531 282.972656 2374.519531 284.515625 2374.519531 291.203125 C 2374.519531 295.320312 2368.171875 332.875 2360.769531 374.035156 C 2345.433594 454.296875 2346.492188 460.984375 2372.933594 454.296875 C 2384.566406 451.726562 2385.097656 453.269531 2385.097656 477.964844 C 2385.097656 502.144531 2383.507812 505.230469 2368.171875 514.492188 C 2334.328125 534.558594 2268.75 522.210938 2268.75 495.972656 C 2268.75 485.679688 2261.875 486.710938 2254.472656 498.027344 C 2238.078125 524.269531 2170.382812 533.527344 2137.597656 514.492188 Z M 2253.941406 444.007812 C 2258.703125 438.863281 2265.578125 416.738281 2269.277344 394.617188 C 2276.683594 348.3125 2273.507812 342.652344 2243.367188 346.769531 C 2220.097656 350.371094 2211.632812 357.574219 2205.816406 380.210938 C 2194.710938 422.398438 2194.183594 436.289062 2202.644531 444.523438 C 2214.277344 455.324219 2243.894531 454.8125 2253.941406 444.007812 Z M 2253.941406 444.007812 "/>
<path style=" stroke:none;fill-rule:nonzero;fill:rgb(76.862745%,70.980392%,18.431373%);fill-opacity:1;" d="M 2590.289062 516.550781 C 2562.789062 502.144531 2559.085938 480.023438 2572.835938 409.535156 C 2584.472656 351.398438 2576.539062 337.507812 2541.632812 351.914062 L 2524.183594 359.117188 L 2512.546875 427.542969 C 2505.671875 465.617188 2499.328125 501.628906 2497.742188 508.320312 C 2495.097656 519.125 2492.453125 519.636719 2451.730469 519.636719 L 2408.367188 519.636719 L 2429.519531 401.304688 L 2451.203125 282.972656 L 2533.171875 282.972656 L 2530 296.863281 L 2526.296875 311.269531 L 2543.222656 297.375 C 2564.375 279.882812 2595.046875 271.652344 2621.492188 275.769531 C 2670.671875 283.484375 2678.605469 307.667969 2661.683594 400.273438 C 2652.164062 452.753906 2654.808594 460.472656 2679.664062 454.296875 C 2690.769531 451.726562 2691.828125 453.78125 2691.828125 468.703125 C 2691.828125 497 2686.007812 509.347656 2670.144531 517.066406 C 2651.105469 526.839844 2608.796875 526.839844 2590.289062 516.550781 Z M 2590.289062 516.550781 "/>
<path style=" stroke:none;fill-rule:nonzero;fill:rgb(76.862745%,70.980392%,18.431373%);fill-opacity:1;" d="M 118.460938 341.625 L 150.722656 164.125 L 252.257812 165.667969 C 366.492188 167.210938 373.894531 169.78125 393.460938 207.855469 C 401.921875 225.347656 402.453125 231.007812 397.164062 261.363281 C 387.644531 318.984375 380.769531 335.964844 358.558594 357.058594 L 337.933594 377.125 L 359.085938 444.523438 C 371.25 481.566406 380.769531 513.976562 380.769531 516.035156 C 380.769531 518.09375 358.027344 519.636719 330.527344 519.636719 L 280.816406 519.636719 L 259.132812 452.753906 C 237.980469 387.414062 236.921875 385.871094 222.117188 385.871094 C 205.191406 385.871094 207.308594 380.726562 195.671875 452.753906 C 192.5 471.273438 188.796875 493.914062 187.210938 503.175781 L 184.566406 519.636719 L 86.730469 519.636719 Z M 290.335938 310.753906 C 303.558594 294.289062 304.617188 269.078125 292.980469 253.128906 C 286.632812 243.871094 279.757812 241.8125 257.019531 241.8125 L 228.992188 241.8125 L 225.289062 268.050781 C 223.171875 282.972656 220 301.492188 218.414062 309.210938 L 215.769531 324.128906 L 247.5 324.128906 C 275.527344 324.128906 280.816406 322.585938 290.335938 310.753906 Z M 290.335938 310.753906 "/>
<path style=" stroke:none;fill-rule:nonzero;fill:rgb(76.862745%,70.980392%,18.431373%);fill-opacity:1;" d="M 2835.671875 508.832031 C 2829.328125 506.261719 2822.453125 501.117188 2820.867188 497 C 2818.222656 490.824219 2816.105469 491.339844 2807.644531 499.574219 C 2794.953125 511.921875 2764.808594 512.433594 2754.757812 500.601562 C 2747.882812 492.882812 2748.414062 492.371094 2759.519531 494.941406 C 2773.269531 498.542969 2779.617188 489.28125 2774.328125 475.390625 C 2771.683594 468.1875 2769.566406 468.1875 2762.691406 473.847656 C 2755.289062 479.507812 2754.757812 477.964844 2758.460938 459.957031 C 2762.691406 435.261719 2765.335938 431.144531 2771.683594 435.261719 C 2774.328125 436.804688 2775.382812 439.890625 2773.796875 442.464844 C 2772.210938 445.035156 2774.855469 454.8125 2779.617188 463.558594 C 2783.847656 472.304688 2787.019531 485.167969 2785.433594 492.371094 C 2783.316406 503.6875 2783.847656 504.203125 2794.421875 497.515625 C 2800.242188 493.398438 2810.816406 481.566406 2817.164062 470.761719 C 2831.441406 446.066406 2840.960938 440.921875 2853.125 449.667969 C 2860 454.296875 2861.585938 459.441406 2858.941406 466.128906 C 2855.242188 475.390625 2854.183594 474.875 2849.953125 463.558594 C 2845.722656 453.78125 2843.605469 452.753906 2837.257812 457.898438 C 2827.210938 466.128906 2827.210938 490.824219 2837.257812 499.058594 C 2847.308594 507.289062 2863.703125 501.628906 2876.921875 485.167969 C 2885.382812 474.363281 2887.5 464.074219 2887.5 431.660156 C 2887.5 358.085938 2903.894531 317.441406 2922.933594 342.652344 C 2934.039062 357.058594 2928.75 404.390625 2911.828125 440.40625 C 2904.421875 456.355469 2898.078125 474.363281 2898.078125 480.535156 C 2898.078125 489.28125 2900.722656 487.738281 2911.828125 471.789062 C 2929.277344 446.578125 2941.972656 448.125 2945.671875 475.390625 C 2949.375 502.660156 2958.367188 503.6875 2974.230469 478.992188 C 2981.632812 468.1875 2990.097656 457.382812 2993.269531 455.324219 C 3003.316406 449.152344 3005.433594 456.871094 2996.441406 466.128906 C 2985.335938 476.933594 2987.453125 495.972656 3000.671875 498.027344 C 3016.539062 501.117188 3021.828125 491.339844 3012.308594 477.449219 C 3004.902344 466.128906 3004.902344 464.074219 3011.777344 454.8125 C 3019.710938 445.035156 3019.710938 445.035156 3027.644531 454.8125 C 3031.875 460.472656 3035.578125 469.21875 3035.578125 474.363281 C 3035.578125 487.738281 3041.921875 485.679688 3059.375 468.1875 C 3067.835938 459.441406 3077.355469 453.269531 3081.058594 454.8125 C 3084.230469 455.839844 3089.519531 454.8125 3092.691406 451.726562 C 3100.625 444.007812 3108.027344 450.695312 3112.257812 468.1875 C 3114.375 476.933594 3117.546875 483.625 3119.664062 483.625 C 3131.296875 483.625 3136.058594 467.675781 3136.058594 427.027344 C 3136.058594 359.628906 3150.335938 323.617188 3170.960938 340.078125 C 3183.652344 350.371094 3178.367188 405.933594 3160.914062 442.976562 C 3149.808594 467.675781 3148.75 474.363281 3154.039062 484.136719 C 3163.027344 502.144531 3175.722656 502.144531 3186.828125 484.136719 C 3196.347656 468.703125 3204.808594 463.558594 3204.808594 472.820312 C 3204.808594 482.59375 3177.308594 509.347656 3167.257812 509.347656 C 3161.972656 509.347656 3153.507812 503.6875 3149.277344 497 C 3141.875 485.679688 3139.757812 485.167969 3122.308594 491.339844 C 3112.257812 494.425781 3101.152344 500.085938 3097.980469 503.175781 C 3088.460938 512.433594 3074.183594 510.375 3062.546875 498.542969 L 3051.972656 487.226562 L 3030.289062 498.542969 C 3004.375 511.40625 2999.617188 511.921875 2986.921875 500.601562 C 2977.933594 492.882812 2976.875 492.882812 2966.296875 502.144531 C 2951.492188 515.007812 2938.269531 506.261719 2936.152344 481.566406 C 2935.097656 471.273438 2932.980469 463.042969 2930.867188 463.042969 C 2928.75 463.042969 2920.289062 473.847656 2911.828125 487.226562 C 2898.078125 509.347656 2896.492188 510.890625 2890.144531 502.660156 C 2886.441406 497.515625 2881.683594 495.457031 2880.097656 498.027344 C 2874.277344 506.773438 2848.367188 513.464844 2835.671875 508.832031 Z M 3095.335938 495.457031 C 3096.394531 492.882812 3093.222656 484.136719 3088.460938 474.875 C 3081.585938 462.527344 3077.882812 459.957031 3073.652344 464.074219 C 3066.777344 470.761719 3065.191406 490.3125 3071.007812 495.457031 C 3075.769531 500.085938 3092.691406 500.085938 3095.335938 495.457031 Z M 3022.882812 465.101562 C 3020.769531 460.472656 3018.125 457.382812 3017.066406 458.925781 C 3015.480469 460.472656 3015.480469 465.617188 3017.597656 470.246094 C 3019.710938 474.875 3022.355469 477.964844 3023.414062 476.421875 C 3025 474.875 3025 469.730469 3022.882812 465.101562 Z M 3099.566406 464.585938 C 3095.335938 456.871094 3094.277344 456.871094 3093.75 463.558594 C 3093.75 472.304688 3099.039062 480.023438 3103.269531 476.421875 C 3104.328125 474.875 3102.742188 469.730469 3099.566406 464.585938 Z M 2918.171875 367.863281 C 2917.117188 356.542969 2914.472656 347.28125 2911.296875 347.28125 C 2903.894531 347.28125 2899.132812 372.492188 2899.132812 414.167969 L 2899.132812 450.179688 L 2909.183594 419.3125 C 2915 402.332031 2919.230469 379.179688 2918.171875 367.863281 Z M 3167.257812 374.550781 C 3167.789062 358.085938 3165.671875 344.710938 3162.5 344.710938 C 3154.566406 344.710938 3146.632812 380.726562 3147.164062 416.738281 L 3147.164062 450.179688 L 3157.210938 427.027344 C 3163.027344 413.652344 3167.257812 391.015625 3167.257812 374.550781 Z M 3167.257812 374.550781 "/>
<path style=" stroke:none;fill-rule:nonzero;fill:rgb(76.862745%,70.980392%,18.431373%);fill-opacity:1;" d="M 2723.558594 501.117188 C 2723.558594 497 2726.203125 494.941406 2728.847656 496.484375 C 2732.019531 498.027344 2734.132812 501.628906 2734.132812 504.71875 C 2734.132812 507.289062 2732.019531 509.347656 2728.847656 509.347656 C 2726.203125 509.347656 2723.558594 505.746094 2723.558594 501.117188 Z M 2723.558594 501.117188 "/>
<path style=" stroke:none;fill-rule:nonzero;fill:rgb(76.862745%,70.980392%,18.431373%);fill-opacity:1;" d="M 854.085938 230.492188 C 839.277344 222.261719 835.578125 216.085938 835.578125 197.050781 C 835.578125 172.355469 844.039062 155.890625 861.492188 146.628906 C 886.875 134.28125 919.664062 138.914062 931.828125 156.40625 C 937.644531 164.636719 937.117188 192.421875 930.769531 208.371094 C 921.777344 231.007812 877.882812 243.871094 854.085938 230.492188 Z M 854.085938 230.492188 "/>
<path style=" stroke:none;fill-rule:nonzero;fill:rgb(76.862745%,70.980392%,18.431373%);fill-opacity:1;" d="M 434.710938 204.769531 C 431.007812 201.167969 428.367188 192.933594 428.367188 186.246094 C 428.367188 171.324219 401.394531 144.058594 386.585938 144.058594 C 379.183594 144.058594 375.480469 140.972656 375.480469 133.769531 C 375.480469 127.59375 379.183594 123.476562 383.941406 123.476562 C 400.335938 123.476562 429.953125 140.972656 439.472656 156.40625 C 455.335938 181.617188 451.105469 220.71875 434.710938 204.769531 Z M 434.710938 204.769531 "/>
<path style=" stroke:none;fill-rule:nonzero;fill:rgb(76.862745%,70.980392%,18.431373%);fill-opacity:1;" d="M 478.078125 206.824219 C 474.902344 204.769531 471.203125 193.449219 469.085938 181.617188 C 463.796875 140.457031 436.296875 111.644531 394.519531 103.414062 C 376.539062 99.8125 370.722656 89.007812 383.414062 84.375 C 409.328125 74.601562 464.855469 109.585938 481.777344 146.628906 C 497.117188 178.527344 494.472656 217.117188 478.078125 206.824219 Z M 478.078125 206.824219 "/>
<path style=" stroke:none;fill-rule:nonzero;fill:rgb(76.862745%,70.980392%,18.431373%);fill-opacity:1;" d="M 516.683594 207.339844 C 514.566406 205.796875 512.980469 194.476562 512.980469 183.160156 C 512.453125 129.136719 469.085938 79.746094 408.796875 64.824219 C 395.046875 61.226562 383.414062 56.078125 381.828125 52.476562 C 374.953125 31.898438 440.527344 46.820312 477.019531 74.601562 C 509.808594 98.78125 534.132812 145.085938 534.132812 183.675781 C 534.132812 202.710938 532.019531 210.941406 527.257812 210.941406 C 523.027344 210.941406 518.269531 209.398438 516.683594 207.339844 Z M 516.683594 207.339844 "/>
</g>
</svg>
