<!DOCTYPE svg PUBLIC "-//W3C//DTD SVG 20010904//EN" "http://www.w3.org/TR/2001/REC-SVG-20010904/DTD/svg10.dtd">
<svg version="1.0" xmlns="http://www.w3.org/2000/svg" width="624px" height="138px" viewBox="0 0 6240 1380" preserveAspectRatio="xMidYMid meet">
<g id="layer101" fill="#c4b52f" stroke="none">
 <path d="M1394 1276 c-43 -19 -45 -26 -27 -82 14 -46 18 -50 42 -46 15 2 32 -2 38 -10 6 -7 29 -119 52 -248 23 -129 46 -259 52 -287 l10 -53 80 0 c56 0 79 4 79 13 0 6 -23 143 -51 302 -54 310 -70 362 -122 394 -44 27 -114 35 -153 17z"/>
 <path d="M1080 1060 c-11 -11 -20 -26 -20 -32 -1 -36 -87 -98 -135 -98 -19 0 -35 -5 -35 -11 0 -6 -12 -26 -26 -45 -16 -21 -24 -40 -20 -50 4 -11 -2 -26 -15 -40 l-22 -23 33 -40 c31 -40 53 -51 65 -31 3 6 19 10 34 10 20 0 43 -15 84 -55 31 -30 57 -61 57 -70 0 -8 6 -15 14 -15 7 0 26 -3 42 -6 25 -5 31 -1 43 27 8 17 22 34 32 36 12 4 20 15 21 32 0 14 2 31 3 36 2 6 3 15 4 22 1 7 17 11 43 10 26 -1 43 3 46 11 2 7 15 26 28 41 13 16 24 34 24 41 0 16 -41 49 -61 50 -9 0 -24 9 -33 19 -16 18 -16 20 4 34 20 14 20 18 10 54 -11 36 -15 39 -46 39 -32 0 -34 -2 -29 -27 5 -23 2 -27 -26 -33 -45 -9 -47 -8 -59 15 -8 14 -8 24 -1 33 17 20 -7 86 -30 86 -5 0 -18 -9 -29 -20z"/>
 <path d="M1812 1003 c-51 -25 -66 -63 -59 -153 18 -218 87 -311 231 -312 39 0 77 6 95 15 17 9 31 11 31 6 0 -5 34 -9 75 -9 41 0 75 2 75 3 0 2 -11 66 -26 142 -31 168 -30 191 9 188 26 -2 27 -1 27 53 0 53 -1 55 -35 70 -70 29 -166 10 -180 -37 -7 -21 -7 -21 -33 4 -15 13 -37 30 -49 36 -32 16 -123 13 -161 -6z m217 -136 c6 -8 17 -49 26 -93 13 -67 13 -80 1 -92 -19 -19 -77 -8 -100 17 -25 28 -44 145 -27 165 16 20 84 21 100 3z"/>
 <path d="M2406 1006 c-54 -20 -77 -46 -83 -95 l-6 -41 84 0 c58 1 90 5 103 15 26 20 81 19 101 -1 25 -25 7 -35 -91 -49 -100 -15 -133 -35 -152 -90 -25 -75 14 -148 100 -185 71 -32 222 -35 285 -6 65 29 88 96 51 144 -7 7 -37 12 -84 12 -68 0 -73 -2 -76 -22 -3 -20 -9 -23 -52 -23 -36 0 -52 5 -60 18 -15 25 12 44 73 53 128 17 181 53 181 121 0 58 -30 104 -86 133 -41 21 -64 25 -149 28 -68 1 -113 -3 -139 -12z"/>
 <path d="M2953 1001 c-49 -23 -73 -56 -79 -108 -5 -40 59 -421 73 -433 9 -8 154 -70 164 -70 4 0 3 21 -2 47 -5 27 -11 63 -14 81 l-6 32 132 0 132 0 -7 50 c-11 84 -3 79 -149 82 l-132 3 -12 65 c-19 98 -7 130 48 130 29 0 52 -21 68 -63 10 -26 12 -27 91 -27 l80 0 -6 28 c-21 82 -64 141 -128 174 -60 31 -195 36 -253 9z"/>
 <path d="M3731 994 c-40 -33 -46 -72 -27 -173 20 -104 20 -116 -1 -136 -19 -20 -68 -14 -93 11 -9 9 -25 74 -40 162 l-26 147 -82 3 c-62 2 -82 0 -82 -10 1 -7 29 -170 63 -363 l62 -350 83 -3 c45 -2 82 1 82 5 0 4 -11 69 -25 143 -14 74 -25 138 -25 142 0 4 15 -1 33 -11 97 -56 225 -22 241 63 3 17 -3 79 -13 136 -21 115 -17 136 26 125 22 -5 23 -3 23 49 0 51 -2 54 -34 70 -54 25 -128 21 -165 -10z"/>
 <path d="M4042 1000 c-53 -33 -67 -79 -53 -175 25 -170 68 -249 149 -276 50 -16 149 -14 177 5 15 10 26 12 30 6 3 -6 37 -10 76 -10 56 0 69 3 69 16 0 8 -12 81 -26 161 -29 156 -27 169 23 156 22 -5 23 -2 23 46 0 47 -3 53 -32 71 -64 39 -188 15 -188 -36 0 -20 -13 -18 -27 4 -31 51 -159 69 -221 32z m220 -137 c9 -10 22 -53 29 -96 14 -90 8 -101 -49 -93 -44 7 -60 21 -71 65 -21 82 -22 109 -6 125 22 21 78 20 97 -1z"/>
 <path d="M4898 1004 c-52 -28 -59 -71 -33 -208 22 -113 7 -140 -59 -112 l-33 14 -22 133 c-13 74 -25 144 -28 157 -5 21 -10 22 -87 22 l-82 0 40 -230 41 -230 78 0 77 0 -6 27 -7 28 32 -27 c40 -34 98 -50 148 -42 93 15 108 62 76 242 -18 102 -13 117 34 105 21 -5 23 -1 23 28 0 55 -11 79 -41 94 -36 19 -116 19 -151 -1z"/>
 <path d="M224 664 l61 -345 192 3 c216 3 230 8 267 82 16 34 17 45 7 104 -18 112 -31 145 -73 186 l-39 39 40 131 c23 72 41 135 41 139 0 4 -43 7 -95 7 l-94 0 -41 -130 c-40 -127 -42 -130 -70 -130 -32 0 -28 -10 -50 130 -6 36 -13 80 -16 98 l-5 32 -92 0 -93 0 60 -346z m325 -60 c25 -32 27 -81 5 -112 -12 -18 -25 -22 -68 -22 l-53 0 -7 51 c-4 29 -10 65 -13 80 l-5 29 60 0 c53 0 63 -3 81 -26z"/>
 <path d="M5362 989 c-12 -5 -25 -15 -28 -23 -5 -12 -9 -11 -25 5 -24 24 -81 25 -100 2 -13 -15 -12 -16 9 -11 26 7 38 -11 28 -38 -5 -14 -9 -14 -22 -3 -14 11 -15 8 -8 -27 8 -48 13 -56 25 -48 5 3 7 9 4 14 -3 5 2 24 11 41 8 17 14 42 11 56 -4 22 -3 23 17 10 11 -8 31 -31 43 -52 27 -48 45 -58 68 -41 13 9 16 19 11 32 -7 18 -9 17 -17 -5 -8 -19 -12 -21 -24 -11 -19 16 -19 64 0 80 19 16 50 5 75 -27 16 -21 20 -41 20 -104 0 -143 31 -222 67 -173 21 28 11 120 -21 190 -14 31 -26 66 -26 78 0 17 5 14 26 -17 33 -49 57 -46 64 7 7 53 24 55 54 7 14 -21 30 -42 36 -46 19 -12 23 3 6 21 -21 21 -17 58 8 62 30 6 40 -13 22 -40 -14 -22 -14 -26 -1 -44 15 -19 15 -19 30 0 8 11 15 28 15 38 0 26 12 22 45 -12 16 -17 34 -29 41 -26 6 2 16 0 22 -6 15 -15 29 -2 37 32 4 17 10 30 14 30 22 0 31 -31 31 -110 0 -131 27 -201 66 -169 24 20 14 128 -19 200 -21 48 -23 61 -13 80 17 35 41 35 62 0 18 -30 34 -40 34 -22 0 19 -52 71 -71 71 -10 0 -26 -11 -34 -24 -14 -22 -18 -23 -51 -11 -19 6 -40 17 -46 23 -18 18 -45 14 -67 -9 l-20 -22 -41 22 c-49 25 -58 26 -82 4 -17 -15 -19 -15 -39 3 -28 25 -53 8 -57 -40 -2 -20 -6 -36 -10 -36 -4 0 -20 21 -36 47 -26 43 -29 46 -41 30 -7 -10 -16 -14 -19 -9 -11 17 -60 30 -84 21z m491 -26 c2 -5 -4 -22 -13 -40 -13 -24 -20 -29 -28 -21 -13 13 -16 51 -5 61 9 9 41 9 46 0z m-137 -59 c-4 -9 -9 -15 -11 -12 -3 3 -3 13 1 22 4 9 9 15 11 12 3 -3 3 -13 -1 -22z m145 -1 c-8 -15 -10 -15 -11 -2 0 17 10 32 18 25 2 -3 -1 -13 -7 -23z m-343 -188 c-2 -22 -7 -40 -13 -40 -14 0 -23 49 -23 130 l0 70 19 -60 c11 -33 19 -78 17 -100z m471 13 c1 -32 -3 -58 -9 -58 -15 0 -30 70 -29 140 l0 65 19 -45 c11 -26 19 -70 19 -102z"/>
 <path d="M5150 974 c0 -8 5 -12 10 -9 6 3 10 10 10 16 0 5 -4 9 -10 9 -5 0 -10 -7 -10 -16z"/>
 <path d="M1615 448 c-28 -16 -35 -28 -35 -65 0 -48 16 -80 49 -98 48 -24 110 -15 133 19 11 16 10 70 -2 101 -17 44 -100 69 -145 43z"/>
 <path d="M822 398 c-7 -7 -12 -23 -12 -36 0 -29 -51 -82 -79 -82 -14 0 -21 -6 -21 -20 0 -12 7 -20 16 -20 31 0 87 34 105 64 30 49 22 125 -9 94z"/>
 <path d="M904 402 c-6 -4 -13 -26 -17 -49 -10 -80 -62 -136 -141 -152 -34 -7 -45 -28 -21 -37 49 -19 154 49 186 121 29 62 24 137 -7 117z"/>
 <path d="M977 403 c-4 -3 -7 -25 -7 -47 -1 -105 -83 -201 -197 -230 -26 -7 -48 -17 -51 -24 -13 -40 111 -11 180 43 62 47 108 137 108 212 0 37 -4 53 -13 53 -8 0 -17 -3 -20 -7z"/>
 </g>

</svg>